<mxfile host="Electron" modified="2023-10-03T18:13:29.632Z" agent="Mozilla/5.0 (X11; Linux x86_64) AppleWebKit/537.36 (KHTML, like Gecko) draw.io/22.0.0 Chrome/114.0.5735.289 Electron/25.8.3 Safari/537.36" etag="X9c5ARCgnEjXkXhR1dpl" version="22.0.0" type="device">
  <diagram name="Page-1" id="CntcF0UTVteKuTBH125w">
    <mxGraphModel dx="2284" dy="839" grid="1" gridSize="10" guides="1" tooltips="1" connect="1" arrows="1" fold="1" page="1" pageScale="1" pageWidth="850" pageHeight="1100" math="0" shadow="0">
      <root>
        <mxCell id="0" />
        <mxCell id="1" parent="0" />
        <mxCell id="3SnNhzNecx77LLAU3o0w-9" style="edgeStyle=orthogonalEdgeStyle;orthogonalLoop=1;jettySize=auto;html=1;exitX=0.5;exitY=1;exitDx=0;exitDy=0;entryX=0.5;entryY=0;entryDx=0;entryDy=0;rounded=1;" edge="1" parent="1" source="3SnNhzNecx77LLAU3o0w-1" target="3SnNhzNecx77LLAU3o0w-7">
          <mxGeometry relative="1" as="geometry" />
        </mxCell>
        <mxCell id="3SnNhzNecx77LLAU3o0w-1" value="DISEASES" style="rounded=0;whiteSpace=wrap;html=1;" vertex="1" parent="1">
          <mxGeometry x="60" y="280" width="120" height="60" as="geometry" />
        </mxCell>
        <mxCell id="3SnNhzNecx77LLAU3o0w-10" style="edgeStyle=orthogonalEdgeStyle;orthogonalLoop=1;jettySize=auto;html=1;exitX=0.5;exitY=1;exitDx=0;exitDy=0;rounded=1;" edge="1" parent="1" source="3SnNhzNecx77LLAU3o0w-2">
          <mxGeometry relative="1" as="geometry">
            <mxPoint x="270" y="410" as="targetPoint" />
          </mxGeometry>
        </mxCell>
        <mxCell id="3SnNhzNecx77LLAU3o0w-2" value="GTEx" style="rounded=0;whiteSpace=wrap;html=1;" vertex="1" parent="1">
          <mxGeometry x="210" y="280" width="120" height="60" as="geometry" />
        </mxCell>
        <mxCell id="3SnNhzNecx77LLAU3o0w-12" style="edgeStyle=orthogonalEdgeStyle;orthogonalLoop=1;jettySize=auto;html=1;exitX=1;exitY=0.5;exitDx=0;exitDy=0;entryX=0;entryY=0.5;entryDx=0;entryDy=0;rounded=1;" edge="1" parent="1" source="3SnNhzNecx77LLAU3o0w-3" target="3SnNhzNecx77LLAU3o0w-1">
          <mxGeometry relative="1" as="geometry" />
        </mxCell>
        <mxCell id="3SnNhzNecx77LLAU3o0w-3" value="1" style="rounded=0;whiteSpace=wrap;html=1;" vertex="1" parent="1">
          <mxGeometry x="-110" y="180" width="120" height="60" as="geometry" />
        </mxCell>
        <mxCell id="3SnNhzNecx77LLAU3o0w-13" style="edgeStyle=orthogonalEdgeStyle;orthogonalLoop=1;jettySize=auto;html=1;exitX=1;exitY=0.5;exitDx=0;exitDy=0;entryX=0;entryY=0.5;entryDx=0;entryDy=0;rounded=1;" edge="1" parent="1" source="3SnNhzNecx77LLAU3o0w-4" target="3SnNhzNecx77LLAU3o0w-1">
          <mxGeometry relative="1" as="geometry" />
        </mxCell>
        <mxCell id="3SnNhzNecx77LLAU3o0w-4" value="2" style="rounded=0;whiteSpace=wrap;html=1;" vertex="1" parent="1">
          <mxGeometry x="-110" y="250" width="120" height="60" as="geometry" />
        </mxCell>
        <mxCell id="3SnNhzNecx77LLAU3o0w-14" style="edgeStyle=orthogonalEdgeStyle;orthogonalLoop=1;jettySize=auto;html=1;exitX=1;exitY=0.5;exitDx=0;exitDy=0;entryX=0;entryY=0.5;entryDx=0;entryDy=0;rounded=1;" edge="1" parent="1" source="3SnNhzNecx77LLAU3o0w-5" target="3SnNhzNecx77LLAU3o0w-1">
          <mxGeometry relative="1" as="geometry" />
        </mxCell>
        <mxCell id="3SnNhzNecx77LLAU3o0w-5" value="3" style="rounded=0;whiteSpace=wrap;html=1;" vertex="1" parent="1">
          <mxGeometry x="-110" y="320" width="120" height="60" as="geometry" />
        </mxCell>
        <mxCell id="3SnNhzNecx77LLAU3o0w-16" style="edgeStyle=orthogonalEdgeStyle;orthogonalLoop=1;jettySize=auto;html=1;exitX=1;exitY=0.5;exitDx=0;exitDy=0;entryX=0;entryY=0.5;entryDx=0;entryDy=0;rounded=1;" edge="1" parent="1" source="3SnNhzNecx77LLAU3o0w-6" target="3SnNhzNecx77LLAU3o0w-1">
          <mxGeometry relative="1" as="geometry" />
        </mxCell>
        <mxCell id="3SnNhzNecx77LLAU3o0w-6" value="4" style="rounded=0;whiteSpace=wrap;html=1;" vertex="1" parent="1">
          <mxGeometry x="-110" y="390" width="120" height="60" as="geometry" />
        </mxCell>
        <mxCell id="3SnNhzNecx77LLAU3o0w-7" value="GeneHarmony" style="rounded=0;whiteSpace=wrap;html=1;" vertex="1" parent="1">
          <mxGeometry x="210" y="480" width="120" height="60" as="geometry" />
        </mxCell>
        <mxCell id="3SnNhzNecx77LLAU3o0w-11" style="edgeStyle=orthogonalEdgeStyle;orthogonalLoop=1;jettySize=auto;html=1;exitX=0.5;exitY=1;exitDx=0;exitDy=0;entryX=0.5;entryY=0;entryDx=0;entryDy=0;rounded=1;" edge="1" parent="1" source="3SnNhzNecx77LLAU3o0w-8" target="3SnNhzNecx77LLAU3o0w-7">
          <mxGeometry relative="1" as="geometry" />
        </mxCell>
        <mxCell id="3SnNhzNecx77LLAU3o0w-18" style="edgeStyle=orthogonalEdgeStyle;rounded=1;orthogonalLoop=1;jettySize=auto;html=1;exitX=0.5;exitY=1;exitDx=0;exitDy=0;entryX=0.5;entryY=0;entryDx=0;entryDy=0;" edge="1" parent="1" source="3SnNhzNecx77LLAU3o0w-8" target="3SnNhzNecx77LLAU3o0w-17">
          <mxGeometry relative="1" as="geometry" />
        </mxCell>
        <mxCell id="3SnNhzNecx77LLAU3o0w-8" value="MSEA" style="rounded=0;whiteSpace=wrap;html=1;" vertex="1" parent="1">
          <mxGeometry x="360" y="280" width="120" height="60" as="geometry" />
        </mxCell>
        <mxCell id="3SnNhzNecx77LLAU3o0w-19" style="edgeStyle=orthogonalEdgeStyle;rounded=1;orthogonalLoop=1;jettySize=auto;html=1;exitX=0;exitY=0.5;exitDx=0;exitDy=0;entryX=1;entryY=0.5;entryDx=0;entryDy=0;" edge="1" parent="1" source="3SnNhzNecx77LLAU3o0w-17" target="3SnNhzNecx77LLAU3o0w-7">
          <mxGeometry relative="1" as="geometry" />
        </mxCell>
        <mxCell id="3SnNhzNecx77LLAU3o0w-17" value="Potential Database Project" style="rounded=0;whiteSpace=wrap;html=1;" vertex="1" parent="1">
          <mxGeometry x="390" y="480" width="120" height="60" as="geometry" />
        </mxCell>
      </root>
    </mxGraphModel>
  </diagram>
</mxfile>
